# xmcd CD database file
#
# Track frame offsets:
#	150
#	20415
#	38191
#	55637
#
# Disc length: 997 seconds
#
# Revision: 0
# Processed by: cddbd v1.5PL3 Copyright (c) Steve Scherf et al.
# Submitted via: CDex 1.50
#
DISCID=2703e304
DTITLE=Sonic Revolution - Estrelia
DYEAR=2001
DGENRE=Game
TTITLE0=夏影 -GaoGao mix-
TTITLE1=虹 -smile mix-
TTITLE2=水たまり -H-Tekno mix-
TTITLE3=双星 -Aero mix-
EXTD=YEAR: 2001
EXTT0=
EXTT1=
EXTT2=
EXTT3=
PLAYORDER=
